<svg width="120" height="32" viewBox="0 0 130 48" fill="none" xmlns="http://www.w3.org/2000/svg">
<path d="M24.4 40H0.8V38.4H4V9.6H0.8V8H24.4L28.12 11.72V20.28L24.8 23.6L28.12 26.92V36.28L24.4 40ZM13.2 9.6V22.8H18.92V9.6H13.2ZM13.2 24.4V38.4H18.92V24.4H13.2ZM38.1972 12.8L32.1172 6.68L38.2372 0.599997L44.3172 6.72L38.1972 12.8ZM46.5172 38.4V40H37.8372L34.1172 36.28V17.6H30.9172V16H39.5972L43.3172 19.72V38.4H46.5172ZM41.7447 42.24L45.1047 45.6H51.5047V9.6H48.3047V8H63.5047V9.6H60.7047V43.48L56.9847 47.2H44.2247L40.5047 43.48L41.7447 42.24ZM70.4169 40L66.2969 35.88V12.12L70.4169 8H88.3769L92.4969 12.12V35.88L88.3769 40H70.4169ZM75.4969 9.6V38.4H83.2969V9.6H75.4969ZM129.452 9.6H126.252V40H115.452L100.292 9.6V38.4H103.492V40H95.2922V38.4H98.4922V9.6H95.2922V8H109.292L124.452 38.4V9.6H121.252V8H129.452V9.6Z" fill="black"/>
</svg>
